# xmcd
#
# Track frame offsets: 
#        150
#        19895
#        34432
#        50707
#        63532
#        85647
#        99622
#        130885
#        142387
#        157157
#        177902
#        197900
#        213825
#        245465
#        257172
#        277117
#
# Disc length: 3912 seconds
#
# Revision: 2
# Processed by: cddbd v1.5.2PL0 Copyright (c) Steve Scherf et al.
# Submitted via: ExactAudioCopy v0.99pb4
#
DISCID=fd0f4610
DTITLE=William Clarke - Deluxe Edition
DYEAR=1999
DGENRE=Blues
TTITLE0=Pawnshop Bound 
TTITLE1=Fishing Blues 
TTITLE2=Trying So Hard 
TTITLE3=This Is My Last Goodbye 
TTITLE4=Easter Bunny Boogie
TTITLE5=Broke And Hungry 
TTITLE6=It's Been A Long Time 
TTITLE7=Educated Fool 
TTITLE8=Lose Your Life
TTITLE9=Going Down This Highway 
TTITLE10=The Boss 
TTITLE11=Evil 
TTITLE12=Must Be Jelly 
TTITLE13=Blowin' The Family Jewels 
TTITLE14=Somebody Is Calling Me Home 
TTITLE15=I Got A Feelling
EXTD=
EXTT0=
EXTT1=
EXTT2=
EXTT3=
EXTT4=
EXTT5=
EXTT6=
EXTT7=
EXTT8=
EXTT9=
EXTT10=
EXTT11=
EXTT12=
EXTT13=
EXTT14=
EXTT15=
PLAYORDER=
